<svg xmlns="http://www.w3.org/2000/svg" xmlns:xlink="http://www.w3.org/1999/xlink" width="1920" zoomAndPan="magnify" viewBox="0 0 1440 809.999993" height="1080" preserveAspectRatio="xMidYMid meet" version="1.0"><path fill="rgb(11.759949%, 83.918762%, 37.649536%)" d="M 366.992188 431.585938 C 279.320312 432.242188 204.550781 360.363281 205.644531 268.382812 C 206.738281 180.339844 279.101562 108.242188 369.394531 109.550781 C 458.8125 110.863281 529.867188 184.925781 527.898438 273.847656 C 526.367188 361.019531 454.878906 432.023438 366.992188 431.585938 Z M 345.347656 194.757812 C 330.261719 194.757812 316.925781 195.632812 303.808594 197.160156 C 291.128906 198.691406 278.667969 201.09375 266.421875 204.808594 C 259.644531 206.992188 254.835938 213.765625 255.710938 220.101562 C 257.023438 230.589844 265.765625 236.269531 276.042969 233.210938 C 287.191406 229.933594 298.34375 227.75 309.929688 226.4375 C 326.109375 224.472656 342.285156 224.035156 358.464844 224.90625 C 373.332031 225.5625 388.199219 227.3125 402.84375 230.371094 C 424.050781 234.738281 444.382812 241.511719 463.1875 252.4375 C 469.089844 255.929688 476.742188 254.402344 481.332031 249.160156 C 487.671875 242.167969 486.140625 231.242188 477.832031 226.21875 C 466.027344 219.007812 453.347656 213.546875 440.011719 209.175781 C 408.53125 199.128906 376.171875 194.976562 345.347656 194.757812 Z M 339.445312 275.375 C 350.59375 275.375 361.523438 276.25 372.457031 277.777344 C 397.597656 281.492188 421.429688 288.921875 443.292969 302.03125 C 445.476562 303.339844 447.882812 303.996094 450.503906 303.777344 C 456.191406 303.339844 460.5625 299.625 461.875 294.164062 C 463.1875 288.703125 461 283.460938 455.972656 280.402344 C 443.726562 272.972656 430.609375 267.074219 416.835938 262.484375 C 387.761719 252.871094 358.027344 248.941406 327.417969 250.46875 C 309.929688 251.34375 292.660156 254.183594 275.824219 259.207031 C 268.828125 261.394531 265.113281 268.167969 267.078125 274.9375 C 269.046875 281.492188 276.042969 285.207031 282.820312 283.242188 C 301.402344 277.777344 320.203125 275.375 339.445312 275.375 Z M 341.847656 302.902344 C 337.257812 302.902344 332.886719 303.121094 328.292969 303.339844 C 312.335938 304.214844 296.59375 306.617188 280.851562 310.332031 C 277.574219 310.988281 275.167969 313.171875 273.855469 316.230469 C 272.324219 319.945312 272.761719 323.441406 275.386719 326.28125 C 278.230469 329.777344 281.945312 330.433594 286.316406 329.558594 C 306.867188 324.96875 327.417969 322.347656 348.40625 323.003906 C 358.902344 323.441406 369.394531 324.53125 379.671875 326.71875 C 396.285156 330.214844 412.027344 336.332031 426.675781 345.070312 C 431.703125 348.128906 437.605469 346.597656 440.449219 341.792969 C 443.507812 336.984375 441.980469 331.085938 436.730469 327.808594 C 432.359375 325.1875 427.769531 322.566406 422.957031 320.382812 C 397.378906 307.929688 370.269531 302.902344 341.847656 302.902344 Z M 341.847656 302.902344 " fill-opacity="1" fill-rule="nonzero"/><path fill="rgb(0.779724%, 0.779724%, 0.779724%)" d="M 345.347656 194.757812 C 376.171875 194.976562 408.53125 199.128906 439.792969 209.613281 C 452.910156 213.984375 465.589844 219.445312 477.617188 226.65625 C 485.921875 231.679688 487.453125 242.386719 481.113281 249.59375 C 476.523438 254.621094 469.089844 256.148438 462.96875 252.871094 C 444.164062 241.949219 423.832031 235.175781 402.625 230.808594 C 387.980469 227.75 373.113281 226.21875 358.246094 225.34375 C 342.066406 224.472656 325.890625 224.90625 309.710938 226.875 C 298.34375 228.183594 286.972656 230.152344 275.824219 233.648438 C 265.765625 236.707031 256.804688 231.023438 255.492188 220.539062 C 254.617188 214.203125 259.425781 207.210938 266.203125 205.246094 C 278.449219 201.53125 290.910156 199.128906 303.589844 197.597656 C 316.925781 195.632812 330.042969 194.757812 345.347656 194.757812 Z M 345.347656 194.757812 " fill-opacity="1" fill-rule="nonzero"/><path fill="rgb(0.779724%, 0.779724%, 0.779724%)" d="M 339.445312 275.375 C 320.203125 275.375 301.402344 277.777344 282.820312 283.242188 C 276.042969 285.207031 269.046875 281.710938 267.078125 274.9375 C 265.113281 268.167969 268.828125 261.394531 275.824219 259.207031 C 292.660156 254.183594 309.929688 251.34375 327.417969 250.46875 C 358.027344 248.941406 387.761719 252.871094 416.835938 262.484375 C 430.609375 267.074219 443.507812 272.972656 455.972656 280.402344 C 461 283.460938 463.1875 288.703125 461.875 294.164062 C 460.5625 299.410156 456.191406 303.121094 450.503906 303.777344 C 447.882812 303.996094 445.476562 303.339844 443.292969 302.03125 C 421.429688 288.921875 397.597656 281.492188 372.457031 277.777344 C 361.523438 276.25 350.59375 275.375 339.445312 275.375 Z M 339.445312 275.375 " fill-opacity="1" fill-rule="nonzero"/><path fill="rgb(0.779724%, 0.779724%, 0.779724%)" d="M 341.847656 302.902344 C 370.269531 302.902344 397.378906 308.148438 423.175781 320.382812 C 427.988281 322.566406 432.578125 325.1875 436.949219 327.808594 C 442.199219 330.867188 443.726562 336.769531 440.667969 341.792969 C 437.824219 346.597656 431.921875 348.128906 426.894531 345.070312 C 412.246094 336.332031 396.722656 330.214844 379.890625 326.71875 C 369.613281 324.53125 359.121094 323.441406 348.625 323.003906 C 327.636719 322.347656 306.867188 324.96875 286.535156 329.558594 C 282.164062 330.433594 278.449219 329.777344 275.605469 326.28125 C 272.980469 323.222656 272.542969 319.726562 274.074219 316.230469 C 275.386719 313.171875 277.792969 311.207031 281.070312 310.332031 C 296.59375 306.835938 312.335938 304.214844 328.511719 303.339844 C 332.886719 302.902344 337.257812 302.683594 341.847656 302.902344 Z M 341.847656 302.902344 " fill-opacity="1" fill-rule="nonzero"/></svg>