<svg xmlns="http://www.w3.org/2000/svg" xmlns:xlink="http://www.w3.org/1999/xlink" width="1920" zoomAndPan="magnify" viewBox="0 0 1440 809.999993" height="1080" preserveAspectRatio="xMidYMid meet" version="1.0"><defs><clipPath id="id1"><path d="M 500.703125 325.011719 L 824.703125 325.011719 L 824.703125 649.011719 L 500.703125 649.011719 Z M 500.703125 325.011719 " clip-rule="nonzero"/></clipPath></defs><g clip-path="url(#id1)"><path fill="rgb(0%, 0%, 0%)" d="M 795.25 325.011719 L 530.160156 325.011719 C 513.886719 325.011719 500.703125 338.191406 500.703125 354.464844 L 500.703125 619.558594 C 500.703125 635.832031 513.886719 649.011719 530.160156 649.011719 L 795.25 649.011719 C 811.523438 649.011719 824.703125 635.832031 824.703125 619.558594 L 824.703125 354.464844 C 824.703125 338.191406 811.523438 325.011719 795.25 325.011719 Z M 773.777344 575.375 L 686.429688 575.375 L 686.429688 570.472656 L 706.886719 552.476562 L 706.886719 449.753906 L 656.652344 575.375 L 648.800781 575.375 L 592.75 448.765625 L 592.75 538.410156 L 618.375 570.472656 L 618.375 575.375 L 551.632812 575.375 L 551.632812 570.472656 L 578.125 538.410156 L 578.125 431.753906 L 554.578125 402.316406 C 554.578125 402.316406 554.578125 398.058594 554.578125 398.722656 L 619.023438 398.722656 L 669.082031 507.011719 L 712.261719 398.722656 L 773.4375 398.722656 L 773.4375 402.316406 L 751.066406 421.121094 L 751.066406 552.476562 L 773.777344 570.472656 Z M 773.777344 575.375 " fill-opacity="1" fill-rule="nonzero"/></g></svg>